<svg width="43" height="43" viewBox="0 0 43 43" fill="none" xmlns="http://www.w3.org/2000/svg">
<path d="M16.5359 31.1067H7.38697C3.72739 31.1067 2.8125 30.1918 2.8125 26.5322V24.7024C2.8125 21.0428 3.72739 20.1279 7.38697 20.1279H16.5359C20.1955 20.1279 21.1104 21.0428 21.1104 24.7024V26.5322C21.1104 30.1918 20.1955 31.1067 16.5359 31.1067Z" stroke="white" stroke-width="1.5" stroke-linecap="round" stroke-linejoin="round"/>
<path d="M6.46875 20.1277V18.298C6.46875 15.2697 7.38364 12.8086 11.9581 12.8086C16.0751 12.8086 17.4475 14.6384 17.4475 17.3831" stroke="white" stroke-width="1.5" stroke-linecap="round" stroke-linejoin="round"/>
<path d="M14.2463 25.6173C14.2463 26.0697 14.1122 26.5119 13.8609 26.888C13.6096 27.2642 13.2523 27.5573 12.8344 27.7304C12.4165 27.9036 11.9566 27.9489 11.5129 27.8606C11.0692 27.7723 10.6617 27.5545 10.3418 27.2346C10.0219 26.9148 9.80408 26.5072 9.71582 26.0635C9.62757 25.6198 9.67287 25.16 9.84598 24.742C10.0191 24.3241 10.3123 23.9669 10.6884 23.7155C11.0645 23.4642 11.5067 23.3301 11.9591 23.3301C12.5657 23.3301 13.1475 23.5711 13.5764 24C14.0054 24.4289 14.2463 25.0107 14.2463 25.6173Z" stroke="white" stroke-width="1.5" stroke-linecap="round" stroke-linejoin="round"/>
<path d="M21.5 43C33.3741 43 43 33.3741 43 21.5C43 9.62588 33.3741 0 21.5 0C9.62588 0 0 9.62588 0 21.5C0 33.3741 9.62588 43 21.5 43Z" fill="#A3C485"/>
<path d="M18.2324 30.1065H23.7217C28.2962 30.1065 30.126 28.2767 30.126 23.7022V18.2128C30.126 13.6384 28.2962 11.8086 23.7217 11.8086H18.2324C13.6579 11.8086 11.8281 13.6384 11.8281 18.2128V23.7022C11.8281 28.2767 13.6579 30.1065 18.2324 30.1065Z" stroke="white" stroke-width="1.5" stroke-linecap="round" stroke-linejoin="round"/>
<path d="M18.7656 11.7143C17.6808 11.7143 16.0156 10.6584 16.0156 9.35734C16.0156 8.0563 16.9933 7.00039 18.0781 7.00039C19.6291 6.96896 20.934 8.83881 21.5156 11.7143C22.0973 8.83881 23.4021 6.96896 24.9531 7.00039C26.038 7.00039 27.0156 8.0563 27.0156 9.35734C27.0156 10.6584 25.3505 11.7143 24.2656 11.7143H18.7656Z" stroke="white" stroke-width="1.5" stroke-linecap="round" stroke-linejoin="round"/>
<path d="M25.3841 16L24.9633 16.494C22.6275 19.2212 19.5 21.1527 16.0156 22.02" stroke="white" stroke-width="1.5" stroke-linecap="round"/>
<path d="M22.7031 16H25.3838V18.6715" stroke="white" stroke-width="1.5" stroke-linecap="round" stroke-linejoin="round"/>
<circle cx="27" cy="29" r="6.25" fill="#A3C485" stroke="white" stroke-width="1.5"/>
<path d="M24 29H30" stroke="white" stroke-width="1.5" stroke-linecap="round" stroke-linejoin="round"/>
</svg>
