<svg width="64" height="9" viewBox="0 0 64 9" fill="none" xmlns="http://www.w3.org/2000/svg">
<path id="Shape" d="M1 4C0.723858 4 0.5 4.22386 0.5 4.5C0.5 4.77614 0.723858 5 1 5V4ZM63.3536 4.85355C63.5488 4.65829 63.5488 4.34171 63.3536 4.14645L60.1716 0.964466C59.9763 0.769204 59.6597 0.769204 59.4645 0.964466C59.2692 1.15973 59.2692 1.47631 59.4645 1.67157L62.2929 4.5L59.4645 7.32843C59.2692 7.52369 59.2692 7.84027 59.4645 8.03553C59.6597 8.2308 59.9763 8.2308 60.1716 8.03553L63.3536 4.85355ZM1 5H63V4H1V5Z" fill="#CECCCC"/>
</svg>
