<svg width="43" height="43" viewBox="0 0 43 43" fill="none" xmlns="http://www.w3.org/2000/svg">
<path d="M21.5 43C33.3741 43 43 33.3741 43 21.5C43 9.62588 33.3741 0 21.5 0C9.62588 0 0 9.62588 0 21.5C0 33.3741 9.62588 43 21.5 43Z" fill="#A3C485"/>
<path d="M17.6109 21.305C17.6024 21.698 17.7495 22.0784 18.0203 22.3634C18.291 22.6483 18.6633 22.8148 19.0562 22.8264H20.6863C21.029 22.8168 21.3539 22.6719 21.59 22.4235C21.8262 22.1751 21.9545 21.8433 21.9469 21.5006C21.9829 21.2218 21.9153 20.9396 21.7571 20.7073C21.5989 20.4749 21.361 20.3087 21.0884 20.24L18.4803 19.3271C18.2055 19.2611 17.9647 19.0959 17.8043 18.8633C17.6438 18.6306 17.5749 18.3469 17.6109 18.0665C17.6033 17.7238 17.7316 17.3921 17.9678 17.1437C18.204 16.8953 18.5289 16.7504 18.8715 16.7407H20.5016C20.8956 16.7518 21.2694 16.9177 21.542 17.2025C21.8146 17.4873 21.964 17.868 21.9578 18.2622" stroke="white" stroke-width="1.5" stroke-linecap="round" stroke-linejoin="round"/>
<path d="M19.7891 22.8809V23.685" stroke="white" stroke-width="1.5" stroke-linecap="round" stroke-linejoin="round"/>
<path d="M19.7891 15.8823V16.73" stroke="white" stroke-width="1.5" stroke-linecap="round" stroke-linejoin="round"/>
<path d="M28.4598 19.7733C28.4598 21.4907 27.9505 23.1694 26.9964 24.5974C26.0423 26.0253 24.6862 27.1382 23.0996 27.7954C21.513 28.4526 19.7671 28.6245 18.0828 28.2895C16.3985 27.9545 14.8513 27.1275 13.6369 25.9131C12.4226 24.6988 11.5956 23.1516 11.2606 21.4673C10.9256 19.783 11.0975 18.0371 11.7547 16.4505C12.4119 14.8639 13.5248 13.5078 14.9527 12.5537C16.3807 11.5996 18.0594 11.0903 19.7768 11.0903C22.0796 11.0903 24.2882 12.0051 25.9166 13.6335C27.5449 15.2619 28.4598 17.4705 28.4598 19.7733Z" stroke="white" stroke-width="1.5" stroke-linecap="round" stroke-linejoin="round"/>
<path d="M23.0234 30.5207C23.4745 31.1603 24.0596 31.6939 24.7381 32.0842C25.4165 32.4744 26.1719 32.712 26.9516 32.7804C27.7313 32.8487 28.5165 32.7462 29.2525 32.4799C29.9885 32.2136 30.6575 31.7899 31.213 31.2385C31.7684 30.687 32.1969 30.0211 32.4685 29.287C32.7402 28.553 32.8484 27.7685 32.7857 26.9884C32.723 26.2082 32.4909 25.4511 32.1055 24.7699C31.7202 24.0886 31.1909 23.4996 30.5545 23.0439" stroke="white" stroke-width="1.5" stroke-linecap="round" stroke-linejoin="round"/>
</svg>
