<svg width="43" height="43" viewBox="0 0 43 43" fill="none" xmlns="http://www.w3.org/2000/svg">
<path d="M21.5 43C33.3741 43 43 33.3741 43 21.5C43 9.62588 33.3741 0 21.5 0C9.62588 0 0 9.62588 0 21.5C0 33.3741 9.62588 43 21.5 43Z" fill="#A3A9C3"/>
<path d="M20.8149 26.4038V28.261C20.7556 29.0701 20.3791 29.823 19.7674 30.3559C19.1557 30.8887 18.3583 31.1585 17.5488 31.1064C16.7382 31.1585 15.9398 30.8891 15.3267 30.3564C14.7135 29.8238 14.3351 29.0709 14.2734 28.261V26.4038C14.2734 27.9774 15.7373 29.0936 17.5488 29.0936C19.3602 29.0936 20.8149 27.9683 20.8149 26.4038Z" stroke="white" stroke-width="1.5" stroke-linecap="round" stroke-linejoin="round"/>
<path d="M20.8163 23.8883C20.8163 24.327 20.6961 24.7574 20.4686 25.1326C20.1436 25.6024 19.7043 25.9816 19.192 26.2346C18.6798 26.4875 18.1116 26.6057 17.5409 26.5781C16.9706 26.6035 16.4032 26.4844 15.8913 26.2316C15.3794 25.9789 14.9398 25.6008 14.6133 25.1326C14.3858 24.7574 14.2656 24.327 14.2656 23.8883C14.2703 23.5055 14.3577 23.1282 14.5219 22.7823C14.6862 22.4364 14.9233 22.1302 15.2171 21.8847C15.8622 21.3356 16.6848 21.0397 17.5318 21.0521C18.3781 21.044 19.1993 21.3394 19.8465 21.8847C20.1463 22.1261 20.3888 22.431 20.5565 22.7775C20.7242 23.124 20.8129 23.5034 20.8163 23.8883Z" stroke="white" stroke-width="1.5" stroke-linecap="round" stroke-linejoin="round"/>
<path d="M20.8149 23.8882V26.4041C20.8149 27.9778 19.3511 29.0939 17.5488 29.0939C15.7464 29.0939 14.2734 27.9686 14.2734 26.4041V23.8882C14.3337 23.0778 14.7117 22.324 15.3252 21.7911C15.9387 21.2581 16.7379 20.9892 17.5488 21.0429C18.395 21.0347 19.2162 21.3301 19.8634 21.8754C20.1572 22.123 20.3942 22.4308 20.5584 22.7781C20.7226 23.1255 20.8101 23.504 20.8149 23.8882Z" stroke="white" stroke-width="1.5" stroke-linecap="round" stroke-linejoin="round"/>
<path d="M31.1065 21.0153V22.9C31.1049 23.1438 31.0086 23.3775 30.8379 23.5517C30.6672 23.7258 30.4354 23.8267 30.1916 23.8331H28.3984C27.9157 23.8431 27.4464 23.6737 27.0814 23.3577C26.7164 23.0417 26.4815 22.6015 26.4223 22.1223C26.3963 21.8485 26.4321 21.5723 26.5272 21.3142C26.6222 21.0561 26.7739 20.8226 26.9712 20.631C27.1426 20.4556 27.3476 20.3166 27.574 20.2223C27.8004 20.128 28.0434 20.0803 28.2887 20.0821H30.1916C30.4354 20.0885 30.6672 20.1894 30.8379 20.3636C31.0086 20.5377 31.1049 20.7714 31.1065 21.0153Z" stroke="white" stroke-width="1.5" stroke-linecap="round" stroke-linejoin="round"/>
<path d="M12.8062 20.5849V18.7552C12.733 17.6515 13.0921 16.5626 13.8076 15.719C14.5231 14.8755 15.5388 14.3434 16.6396 14.2356C16.8849 14.1984 17.1326 14.1801 17.3807 14.1807H25.6147C25.8443 14.1771 26.0738 14.1924 26.3009 14.2264C27.4124 14.3231 28.4419 14.8513 29.1687 15.6978C29.8955 16.5443 30.2618 17.6418 30.1892 18.7552V20.0818H28.2862C28.0266 20.0834 27.7701 20.1386 27.5329 20.244C27.2956 20.3495 27.0827 20.5027 26.9075 20.6943C26.7323 20.8858 26.5985 21.1115 26.5146 21.3572C26.4307 21.6029 26.3984 21.8632 26.4198 22.122C26.4791 22.6012 26.7139 23.0413 27.079 23.3574C27.444 23.6734 27.9133 23.8428 28.396 23.8328H30.1892V25.1594C30.226 25.7697 30.133 26.3809 29.9161 26.9526C29.6992 27.5243 29.3635 28.0435 28.9312 28.4759C28.4988 28.9082 27.9797 29.2439 27.408 29.4608C26.8363 29.6776 26.2251 29.7707 25.6147 29.7339H23.3275" stroke="white" stroke-width="1.5" stroke-linecap="round" stroke-linejoin="round"/>
</svg>
