<svg width="49" height="49" viewBox="0 0 49 49" fill="none" xmlns="http://www.w3.org/2000/svg">
<rect x="24.0391" width="34" height="34" rx="6" transform="rotate(45 24.0391 0)" fill="#FF9F43"/>
<path d="M30.4143 18.5624L24.0053 18.5624C23.0506 18.5625 22.11 18.7928 21.2633 19.2337C20.4166 19.6747 19.6886 20.3133 19.1412 21.0954L18.5309 21.967C17.9834 22.7492 17.2555 23.3878 16.4088 23.8287C15.562 24.2697 14.6215 24.4999 13.6668 24.5H12.0391" stroke="white" stroke-width="1.5" stroke-linecap="round" stroke-linejoin="round"/>
<path d="M30.4158 30.4375L24.0092 30.4375C23.0539 30.4375 22.1127 30.2071 21.2655 29.7657C20.4183 29.3243 19.6901 28.6851 19.1427 27.9022L18.5371 27.0353C17.9899 26.2525 17.2619 25.6134 16.4149 25.172C15.5679 24.7306 14.627 24.5001 13.6719 24.4999" stroke="white" stroke-width="1.5" stroke-linecap="round" stroke-linejoin="round"/>
<path d="M26.8516 26.8749L30.4141 30.4375L26.8516 34" stroke="white" stroke-width="1.5" stroke-linecap="round" stroke-linejoin="round"/>
<path d="M26.8516 14.9999L30.4141 18.5625L26.8516 22.125" stroke="white" stroke-width="1.5" stroke-linecap="round" stroke-linejoin="round"/>
</svg>
