<svg width="49" height="49" viewBox="0 0 49 49" fill="none" xmlns="http://www.w3.org/2000/svg">
<path d="M30.3999 29.617V20.9255C30.3985 20.4406 30.2052 19.9761 29.8624 19.6332C29.5196 19.2904 29.055 19.0972 28.5701 19.0957H24.4531" stroke="white" stroke-width="1.5" stroke-linecap="round" stroke-linejoin="round"/>
<path d="M26.7447 16.8086L24 19.0958L26.7447 21.3831" stroke="white" stroke-width="1.5" stroke-linecap="round" stroke-linejoin="round"/>
<path d="M17.5938 23.2129V29.6171" stroke="white" stroke-width="1.5" stroke-linecap="round" stroke-linejoin="round"/>
<path d="M20.8062 19.782C20.8062 20.3701 20.6318 20.945 20.3051 21.4339C19.9784 21.9229 19.514 22.304 18.9707 22.5291C18.4273 22.7541 17.8295 22.813 17.2527 22.6983C16.6759 22.5835 16.1461 22.3004 15.7303 21.8845C15.3144 21.4687 15.0312 20.9389 14.9165 20.3621C14.8018 19.7853 14.8607 19.1874 15.0857 18.6441C15.3108 18.1008 15.6919 17.6364 16.1808 17.3097C16.6698 16.983 17.2447 16.8086 17.8328 16.8086C18.6214 16.8086 19.3777 17.1219 19.9353 17.6795C20.4929 18.2371 20.8062 18.9934 20.8062 19.782Z" stroke="white" stroke-width="1.5" stroke-linecap="round" stroke-linejoin="round"/>
<path d="M20.3487 32.3614C20.3487 32.9042 20.1878 33.4349 19.8862 33.8862C19.5846 34.3376 19.1559 34.6894 18.6544 34.8971C18.1529 35.1049 17.601 35.1592 17.0686 35.0533C16.5362 34.9474 16.0471 34.686 15.6633 34.3022C15.2794 33.9183 15.018 33.4293 14.9121 32.8968C14.8062 32.3644 14.8606 31.8126 15.0683 31.311C15.276 30.8095 15.6278 30.3809 16.0792 30.0793C16.5306 29.7777 17.0612 29.6167 17.6041 29.6167C18.332 29.6167 19.0301 29.9059 19.5448 30.4206C20.0596 30.9353 20.3487 31.6334 20.3487 32.3614Z" stroke="white" stroke-width="1.5" stroke-linecap="round" stroke-linejoin="round"/>
<path d="M33.1456 32.3614C33.1456 32.9042 32.9846 33.4349 32.6831 33.8862C32.3815 34.3376 31.9528 34.6894 31.4513 34.8971C30.9498 35.1049 30.3979 35.1592 29.8655 35.0533C29.3331 34.9474 28.844 34.686 28.4601 34.3022C28.0763 33.9183 27.8149 33.4293 27.709 32.8968C27.6031 32.3644 27.6574 31.8126 27.8652 31.311C28.0729 30.8095 28.4247 30.3809 28.8761 30.0793C29.3274 29.7777 29.8581 29.6167 30.4009 29.6167C31.1289 29.6167 31.827 29.9059 32.3417 30.4206C32.8564 30.9353 33.1456 31.6334 33.1456 32.3614Z" stroke="white" stroke-width="1.5" stroke-linecap="round" stroke-linejoin="round"/>
<rect x="24.0391" width="34" height="34" rx="6" transform="rotate(45 24.0391 0)" fill="#9DA8AC"/>
<path d="M20.3438 14.7944V17.5498" stroke="white" stroke-width="1.5" stroke-linecap="round" stroke-linejoin="round"/>
<path d="M27.6875 14.7944V17.5498" stroke="white" stroke-width="1.5" stroke-linecap="round" stroke-linejoin="round"/>
<path d="M16.2188 21.3062H31.8322" stroke="white" stroke-width="1.5" stroke-linecap="round" stroke-linejoin="round"/>
<path d="M32.2897 20.7641V28.5708C32.2897 31.3261 30.9121 33.163 27.6975 33.163H20.35C17.1355 33.163 15.7578 31.3261 15.7578 28.5708V20.7641C15.7578 18.0088 17.1355 16.1719 20.35 16.1719H27.6975C30.9121 16.1719 32.2897 18.0088 32.2897 20.7641Z" stroke="white" stroke-width="1.5" stroke-linecap="round" stroke-linejoin="round"/>
<path d="M27.4141 25.54H27.4191" stroke="white" stroke-width="2" stroke-linecap="round" stroke-linejoin="round"/>
<path d="M27.4141 28.2954H27.4191" stroke="white" stroke-width="2" stroke-linecap="round" stroke-linejoin="round"/>
<path d="M24.0156 25.54H24.0206" stroke="white" stroke-width="2" stroke-linecap="round" stroke-linejoin="round"/>
<path d="M24.0156 28.2954H24.0206" stroke="white" stroke-width="2" stroke-linecap="round" stroke-linejoin="round"/>
<path d="M20.625 25.54H20.63" stroke="white" stroke-width="2" stroke-linecap="round" stroke-linejoin="round"/>
<path d="M20.625 28.2954H20.63" stroke="white" stroke-width="2" stroke-linecap="round" stroke-linejoin="round"/>
</svg>
