<svg width="49" height="49" viewBox="0 0 49 49" fill="none" xmlns="http://www.w3.org/2000/svg">
<rect x="24.0391" width="34" height="34" rx="6" transform="rotate(45 24.0391 0)" fill="#EA5455"/>
<path d="M30.5327 27.2127V19.3746C30.5314 18.9119 30.3534 18.4686 30.0377 18.1414C29.7219 17.8142 29.2941 17.6298 28.8476 17.6284H25.9688" stroke="white" stroke-width="1.5" stroke-linecap="round" stroke-linejoin="round"/>
<path d="M27.5288 15.6279L25.0234 17.7157L27.5288 19.8035" stroke="white" stroke-width="1.5" stroke-linecap="round" stroke-linejoin="round"/>
<path d="M19.1719 21.4736V27.3194" stroke="white" stroke-width="1.5" stroke-linecap="round" stroke-linejoin="round"/>
<path d="M22.1001 18.342C22.1001 18.8788 21.9409 19.4036 21.6427 19.8499C21.3444 20.2962 20.9205 20.6441 20.4246 20.8495C19.9287 21.0549 19.383 21.1087 18.8565 21.004C18.33 20.8992 17.8464 20.6408 17.4668 20.2612C17.0872 19.8816 16.8288 19.398 16.724 18.8715C16.6193 18.345 16.6731 17.7993 16.8785 17.3034C17.0839 16.8074 17.4318 16.3836 17.8781 16.0853C18.3244 15.7871 18.8492 15.6279 19.386 15.6279C20.1058 15.6279 20.7961 15.9139 21.3051 16.4229C21.8141 16.9319 22.1001 17.6222 22.1001 18.342Z" stroke="white" stroke-width="1.5" stroke-linecap="round" stroke-linejoin="round"/>
<path d="M21.6825 29.8247C21.6825 30.3202 21.5356 30.8045 21.2603 31.2165C20.985 31.6285 20.5937 31.9496 20.1359 32.1393C19.6782 32.3289 19.1744 32.3785 18.6884 32.2818C18.2024 32.1852 17.756 31.9466 17.4057 31.5962C17.0553 31.2458 16.8167 30.7994 16.72 30.3134C16.6233 29.8274 16.673 29.3237 16.8626 28.8659C17.0522 28.4081 17.3733 28.0168 17.7853 27.7416C18.1973 27.4663 18.6817 27.3193 19.1772 27.3193C19.8416 27.3193 20.4789 27.5833 20.9487 28.0531C21.4186 28.523 21.6825 29.1602 21.6825 29.8247Z" stroke="white" stroke-width="1.5" stroke-linecap="round" stroke-linejoin="round"/>
<path d="M33.37 29.8247C33.37 30.3202 33.2231 30.8045 32.9478 31.2165C32.6725 31.6285 32.2812 31.9496 31.8234 32.1393C31.3657 32.3289 30.8619 32.3785 30.3759 32.2818C29.8899 32.1852 29.4435 31.9466 29.0932 31.5962C28.7428 31.2458 28.5042 30.7994 28.4075 30.3134C28.3108 29.8274 28.3605 29.3237 28.5501 28.8659C28.7397 28.4081 29.0608 28.0168 29.4728 27.7416C29.8848 27.4663 30.3692 27.3193 30.8647 27.3193C31.5291 27.3193 32.1664 27.5833 32.6362 28.0531C33.1061 28.523 33.37 29.1602 33.37 29.8247Z" stroke="white" stroke-width="1.5" stroke-linecap="round" stroke-linejoin="round"/>
</svg>
