<svg width="49" height="49" viewBox="0 0 49 49" fill="none" xmlns="http://www.w3.org/2000/svg">
<g id="Group 77">
<g id="Group 8614">
<rect id="Rectangle 23" x="24.0391" width="34" height="34" rx="6" transform="rotate(45 24.0391 0)" fill="#9DA8AC"/>
<g id="vuesax/linear/profile-2user">
<g id="profile-2user">
<path id="Vector" d="M21.4208 22.9446C21.3204 22.9354 21.2193 22.9354 21.1189 22.9446C20.0541 22.905 19.0474 22.4492 18.3153 21.6751C17.5831 20.901 17.184 19.8705 17.2038 18.8052C17.2236 17.7399 17.6607 16.7249 18.4211 15.9785C19.1814 15.2321 20.2043 14.814 21.2698 14.814C22.3353 14.814 23.3582 15.2321 24.1186 15.9785C24.879 16.7249 25.3161 17.7399 25.3358 18.8052C25.3556 19.8705 24.9565 20.901 24.2244 21.6751C23.4922 22.4492 22.4855 22.905 21.4208 22.9446Z" stroke="white" stroke-width="1.5" stroke-linecap="round" stroke-linejoin="round"/>
<path id="Vector_2" d="M28.0564 16.6597C28.9057 16.6597 29.7202 16.997 30.3207 17.5975C30.9212 18.1981 31.2586 19.0125 31.2586 19.8618C31.2591 20.6908 30.9381 21.4878 30.3631 22.085C29.7881 22.6822 29.0038 23.0331 28.1754 23.0639C28.0963 23.0548 28.0165 23.0548 27.9375 23.0639" stroke="white" stroke-width="1.5" stroke-linecap="round" stroke-linejoin="round"/>
<path id="Vector_3" d="M16.848 26.3216C14.634 27.8037 14.634 30.219 16.848 31.692C18.2325 32.5183 19.8148 32.9546 21.4271 32.9546C23.0394 32.9546 24.6216 32.5183 26.0061 31.692C28.2202 30.2099 28.2202 27.7946 26.0061 26.3216C24.6201 25.4997 23.0385 25.0659 21.4271 25.0659C19.8157 25.0659 18.234 25.4997 16.848 26.3216Z" stroke="white" stroke-width="1.5" stroke-linecap="round" stroke-linejoin="round"/>
<path id="Vector_4" d="M29.8203 31.298C30.4701 31.1701 31.0829 30.8981 31.6135 30.502C31.9416 30.2925 32.2117 30.0038 32.3988 29.6624C32.5858 29.321 32.6839 28.938 32.6839 28.5487C32.6839 28.1594 32.5858 27.7764 32.3988 27.435C32.2117 27.0936 31.9416 26.8049 31.6135 26.5954C31.0881 26.2097 30.4859 25.9414 29.8478 25.8086" stroke="white" stroke-width="1.5" stroke-linecap="round" stroke-linejoin="round"/>
</g>
</g>
</g>
</g>
</svg>
