<svg width="43" height="43" viewBox="0 0 43 43" fill="none" xmlns="http://www.w3.org/2000/svg">
<path d="M21.5 43C33.3741 43 43 33.3741 43 21.5C43 9.62588 33.3741 0 21.5 0C9.62588 0 0 9.62588 0 21.5C0 33.3741 9.62588 43 21.5 43Z" fill="#A3C485"/>
<path d="M27.2168 17.4283C26.9897 17.3942 26.7602 17.3789 26.5306 17.3825H17.3817C17.1336 17.3819 16.8859 17.4003 16.6406 17.4374C16.7781 17.1727 16.9573 16.9317 17.1713 16.7238L20.1447 13.7413C20.7485 13.1434 21.5639 12.8081 22.4136 12.8081C23.2633 12.8081 24.0787 13.1434 24.6825 13.7413L26.2836 15.3606C26.8458 15.9064 27.1794 16.6456 27.2168 17.4283Z" stroke="white" stroke-width="1.5" stroke-linecap="round" stroke-linejoin="round"/>
<path d="M19.2098 28.3617C19.2111 29.027 19.0274 29.6795 18.6791 30.2464C18.3555 30.7875 17.8972 31.2354 17.3488 31.5464C16.8003 31.8574 16.1807 32.0209 15.5502 32.0209C14.9197 32.0209 14.3001 31.8574 13.7517 31.5464C13.2033 31.2354 12.7449 30.7875 12.4213 30.2464C12.0731 29.6795 11.8893 29.027 11.8906 28.3617C11.8906 27.3911 12.2762 26.4603 12.9625 25.774C13.6488 25.0877 14.5796 24.7021 15.5502 24.7021C16.5208 24.7021 17.4516 25.0877 18.1379 25.774C18.8242 26.4603 19.2098 27.3911 19.2098 28.3617Z" stroke="white" stroke-width="1.5" stroke-linecap="round" stroke-linejoin="round"/>
<path d="M16.9139 28.3428H14.1875" stroke="white" stroke-width="1.5" stroke-linecap="round" stroke-linejoin="round"/>
<path d="M15.5469 27.0078V29.7433" stroke="white" stroke-width="1.5" stroke-linecap="round" stroke-linejoin="round"/>
<path d="M31.1041 21.9573V26.5318C31.1409 27.1421 31.0478 27.7533 30.831 28.325C30.6141 28.8967 30.2784 29.4159 29.8461 29.8482C29.4137 30.2806 28.8945 30.6163 28.3229 30.8331C27.7512 31.05 27.14 31.1431 26.5296 31.1062H17.9571C18.2456 30.8632 18.4901 30.5723 18.6798 30.2462C19.0281 29.6794 19.2118 29.0268 19.2105 28.3616C19.2094 27.6187 18.9823 26.8937 18.5593 26.283C18.1363 25.6723 17.5374 25.2048 16.8423 24.9427C16.1472 24.6805 15.3888 24.6361 14.6678 24.8154C13.9469 24.9946 13.2976 25.3891 12.8062 25.9462V21.9573C12.733 20.8536 13.0921 19.7647 13.8076 18.9212C14.5231 18.0776 15.5388 17.5456 16.6396 17.4377C16.8849 17.4006 17.1326 17.3822 17.3807 17.3828H26.5296C26.7592 17.3792 26.9887 17.3945 27.2158 17.4286C28.3273 17.5253 29.3568 18.0534 30.0836 18.8999C30.8104 19.7465 31.1767 20.844 31.1041 21.9573Z" stroke="white" stroke-width="1.5" stroke-linecap="round" stroke-linejoin="round"/>
<path d="M31.1057 22.4146H28.361C27.8757 22.4146 27.4103 22.6073 27.0672 22.9505C26.724 23.2936 26.5312 23.759 26.5312 24.2443C26.5312 24.7296 26.724 25.195 27.0672 25.5382C27.4103 25.8813 27.8757 26.0741 28.361 26.0741H31.1057" stroke="white" stroke-width="1.5" stroke-linecap="round" stroke-linejoin="round"/>
</svg>
