<svg width="49" height="49" viewBox="0 0 49 49" fill="none" xmlns="http://www.w3.org/2000/svg">
<path d="M30.7593 29.617V20.9255C30.7579 20.4406 30.5646 19.9761 30.2218 19.6332C29.8789 19.2904 29.4144 19.0972 28.9295 19.0957H24.8125" stroke="white" stroke-width="1.5" stroke-linecap="round" stroke-linejoin="round"/>
<path d="M27.1041 16.8086L24.3594 19.0958L27.1041 21.3831" stroke="white" stroke-width="1.5" stroke-linecap="round" stroke-linejoin="round"/>
<path d="M17.9531 23.2129V29.6171" stroke="white" stroke-width="1.5" stroke-linecap="round" stroke-linejoin="round"/>
<path d="M21.1499 19.782C21.1499 20.3701 20.9755 20.945 20.6488 21.4339C20.3221 21.9229 19.8577 22.304 19.3144 22.5291C18.7711 22.7541 18.1732 22.813 17.5964 22.6983C17.0197 22.5835 16.4899 22.3004 16.074 21.8845C15.6582 21.4687 15.375 20.9389 15.2603 20.3621C15.1455 19.7853 15.2044 19.1874 15.4295 18.6441C15.6545 18.1008 16.0356 17.6364 16.5246 17.3097C17.0136 16.983 17.5884 16.8086 18.1765 16.8086C18.9651 16.8086 19.7214 17.1219 20.279 17.6795C20.8367 18.2371 21.1499 18.9934 21.1499 19.782Z" stroke="white" stroke-width="1.5" stroke-linecap="round" stroke-linejoin="round"/>
<path d="M20.6925 32.3614C20.6925 32.9042 20.5315 33.4349 20.2299 33.8862C19.9283 34.3376 19.4997 34.6894 18.9982 34.8971C18.4966 35.1049 17.9448 35.1592 17.4123 35.0533C16.8799 34.9474 16.3909 34.686 16.007 34.3022C15.6232 33.9183 15.3618 33.4293 15.2559 32.8968C15.15 32.3644 15.2043 31.8126 15.4121 31.311C15.6198 30.8095 15.9716 30.3809 16.4229 30.0793C16.8743 29.7777 17.405 29.6167 17.9478 29.6167C18.6757 29.6167 19.3739 29.9059 19.8886 30.4206C20.4033 30.9353 20.6925 31.6334 20.6925 32.3614Z" stroke="white" stroke-width="1.5" stroke-linecap="round" stroke-linejoin="round"/>
<path d="M33.505 32.3614C33.505 32.9042 33.344 33.4349 33.0424 33.8862C32.7408 34.3376 32.3122 34.6894 31.8107 34.8971C31.3091 35.1049 30.7573 35.1592 30.2248 35.0533C29.6924 34.9474 29.2034 34.686 28.8195 34.3022C28.4357 33.9183 28.1743 33.4293 28.0684 32.8968C27.9625 32.3644 28.0168 31.8126 28.2246 31.311C28.4323 30.8095 28.7841 30.3809 29.2354 30.0793C29.6868 29.7777 30.2175 29.6167 30.7603 29.6167C31.4882 29.6167 32.1864 29.9059 32.7011 30.4206C33.2158 30.9353 33.505 31.6334 33.505 32.3614Z" stroke="white" stroke-width="1.5" stroke-linecap="round" stroke-linejoin="round"/>
<rect x="24.0391" width="34" height="34" rx="6" transform="rotate(45 24.0391 0)" fill="#9DA8AC"/>
<path d="M33.2477 23.7631C33.2477 25.5371 32.7339 27.2712 31.7713 28.7461C30.8087 30.2211 29.4405 31.3707 27.8397 32.0496C26.2389 32.7284 24.4774 32.906 22.7781 32.56C21.0787 32.2139 19.5177 31.3597 18.2925 30.1053C17.0673 28.8509 16.2329 27.2528 15.8949 25.5129C15.5569 23.7731 15.7304 21.9697 16.3934 20.3308C17.0565 18.6919 18.1794 17.2911 19.62 16.3055C21.0607 15.32 22.7545 14.7939 24.4872 14.7939C26.8106 14.7939 29.0389 15.7389 30.6818 17.421C32.3248 19.103 33.2477 21.3843 33.2477 23.7631Z" stroke="white" stroke-width="1.5" stroke-linecap="round" stroke-linejoin="round"/>
<path d="M27.7384 26.6152L25.0226 24.9559C24.7724 24.7845 24.5646 24.556 24.4156 24.2882C24.2666 24.0205 24.1805 23.7209 24.1641 23.4132V19.7358" stroke="white" stroke-width="1.5" stroke-linecap="round" stroke-linejoin="round"/>
</svg>
