<svg width="39" height="39" viewBox="0 0 39 39" fill="none" xmlns="http://www.w3.org/2000/svg">
<rect x="39" width="39" height="39" rx="6" transform="rotate(90 39 0)" fill="#F29A68"/>
<path d="M19.9614 28.7339H15.387C12.6423 28.7339 10.8125 27.3615 10.8125 24.1594V17.7551C10.8125 14.553 12.6423 13.1807 15.387 13.1807H24.5359C27.2806 13.1807 29.1104 14.553 29.1104 17.7551V20.4998" stroke="white" stroke-width="1.5" stroke-linecap="round" stroke-linejoin="round"/>
<path d="M24.5396 18.2129L21.6759 20.5001C21.1787 20.8656 20.5777 21.0627 19.9605 21.0627C19.3434 21.0627 18.7424 20.8656 18.2451 20.5001L15.3906 18.2129" stroke="white" stroke-width="1.5" stroke-linecap="round" stroke-linejoin="round"/>
<path d="M26.5599 23.4913L23.3221 26.73C23.1831 26.8815 23.0882 27.0682 23.0477 27.2698L22.8738 28.5049C22.8521 28.6006 22.8549 28.7004 22.8821 28.7947C22.9094 28.8891 22.9601 28.975 23.0295 29.0445C23.099 29.1139 23.1849 29.1647 23.2793 29.1919C23.3737 29.2191 23.4734 29.222 23.5692 29.2002L24.8043 29.0264C25.0065 28.9878 25.1937 28.8926 25.3441 28.7519L28.5828 25.5132C28.7443 25.3976 28.8759 25.2452 28.9666 25.0686C29.0574 24.8919 29.1048 24.6962 29.1048 24.4976C29.1048 24.2991 29.0574 24.1033 28.9666 23.9267C28.8759 23.7501 28.7443 23.5977 28.5828 23.4821C28.4668 23.3221 28.3143 23.1919 28.138 23.1025C27.9617 23.0131 27.7667 22.9669 27.569 22.9678C27.3713 22.9687 27.1767 23.0166 27.0013 23.1076C26.8258 23.1987 26.6745 23.3302 26.5599 23.4913Z" stroke="white" stroke-width="1.5" stroke-linecap="round" stroke-linejoin="round"/>
<path d="M26.0938 23.958C26.228 24.4432 26.4857 24.8852 26.8416 25.2412C27.1976 25.5971 27.6397 25.8548 28.1248 25.9891" stroke="white" stroke-width="1.5" stroke-linecap="round" stroke-linejoin="round"/>
</svg>
