<svg width="49" height="49" viewBox="0 0 49 49" fill="none" xmlns="http://www.w3.org/2000/svg">
<rect x="24.0391" width="34" height="34" rx="6" transform="rotate(45 24.0391 0)" fill="#28C76F"/>
<path d="M18.9062 19.5593C19.2163 15.9593 21.0662 14.4893 25.1163 14.4893H25.2463C29.7162 14.4893 31.5063 16.2793 31.5063 20.7493V27.2693C31.5063 31.7393 29.7162 33.5293 25.2463 33.5293H25.1163C21.0963 33.5293 19.2463 32.0793 18.9162 28.5393" fill="#28C76F"/>
<path d="M18.9062 19.5593C19.2163 15.9593 21.0662 14.4893 25.1163 14.4893H25.2463C29.7162 14.4893 31.5063 16.2793 31.5063 20.7493V27.2693C31.5063 31.7393 29.7162 33.5293 25.2463 33.5293H25.1163C21.0963 33.5293 19.2463 32.0793 18.9162 28.5393" stroke="white" stroke-width="1.5" stroke-linecap="round" stroke-linejoin="round"/>
<path d="M12 24H24.88Z" fill="#28C76F"/>
<path d="M12 24H24.88" stroke="white" stroke-width="1.5" stroke-linecap="round" stroke-linejoin="round"/>
<path d="M22.6562 20.6499L26.0062 23.9999L22.6562 27.3499" fill="#28C76F"/>
<path d="M22.6562 20.6499L26.0062 23.9999L22.6562 27.3499" stroke="white" stroke-width="1.5" stroke-linecap="round" stroke-linejoin="round"/>
</svg>
