<svg width="43" height="43" viewBox="0 0 43 43" fill="none" xmlns="http://www.w3.org/2000/svg">
<path d="M21.5 43C33.3741 43 43 33.3741 43 21.5C43 9.62588 33.3741 0 21.5 0C9.62588 0 0 9.62588 0 21.5C0 33.3741 9.62588 43 21.5 43Z" fill="#A3A9C3"/>
<path d="M29.7329 21.3166V17.4192C29.7329 13.7321 28.8729 12.8081 25.4146 12.8081H18.498C15.0397 12.8081 14.1797 13.7321 14.1797 17.4192V27.7209C14.1797 30.1545 15.5154 30.7309 17.1348 28.9926L17.1439 28.9834C17.3046 28.7972 17.5058 28.6502 17.7321 28.5538C17.9584 28.4574 18.2037 28.4142 18.4493 28.4275C18.695 28.4407 18.9343 28.5101 19.1489 28.6303C19.3635 28.7504 19.5477 28.9182 19.6873 29.1207L20.6114 30.3558" stroke="white" stroke-width="1.5" stroke-linecap="round" stroke-linejoin="round"/>
<path d="M18.2969 17.3828H25.616" stroke="white" stroke-width="1.5" stroke-linecap="round" stroke-linejoin="round"/>
<path d="M19.2109 21.0425H24.7003" stroke="white" stroke-width="1.5" stroke-linecap="round" stroke-linejoin="round"/>
<path d="M27.6381 24.4913L24.4003 27.73C24.2612 27.8815 24.1663 28.0682 24.1258 28.2698L23.952 29.5049C23.9302 29.6006 23.933 29.7004 23.9603 29.7947C23.9875 29.8891 24.0382 29.975 24.1077 30.0445C24.1771 30.1139 24.263 30.1647 24.3574 30.1919C24.4518 30.2191 24.5515 30.222 24.6473 30.2002L25.8824 30.0264C26.0847 29.9878 26.2719 29.8926 26.4222 29.7519L29.6609 26.5132C29.8224 26.3976 29.954 26.2452 30.0448 26.0686C30.1355 25.8919 30.1829 25.6962 30.1829 25.4976C30.1829 25.2991 30.1355 25.1033 30.0448 24.9267C29.954 24.7501 29.8224 24.5977 29.6609 24.4821C29.5449 24.3221 29.3924 24.1919 29.2161 24.1025C29.0399 24.0131 28.8448 23.9669 28.6471 23.9678C28.4495 23.9687 28.2548 24.0166 28.0794 24.1076C27.9039 24.1987 27.7526 24.3302 27.6381 24.4913Z" stroke="white" stroke-width="1.5" stroke-linecap="round" stroke-linejoin="round"/>
<path d="M27.1719 24.958C27.3062 25.4432 27.5638 25.8852 27.9198 26.2412C28.2757 26.5971 28.7178 26.8548 29.2029 26.9891" stroke="white" stroke-width="1.5" stroke-linecap="round" stroke-linejoin="round"/>
</svg>
