<svg width="43" height="43" viewBox="0 0 43 43" fill="none" xmlns="http://www.w3.org/2000/svg">
<path d="M21.5 43C33.3741 43 43 33.3741 43 21.5C43 9.62588 33.3741 0 21.5 0C9.62588 0 0 9.62588 0 21.5C0 33.3741 9.62588 43 21.5 43Z" fill="#A3A9C3"/>
<path d="M19.2089 31.106H24.6983C29.2728 31.106 31.1026 29.2762 31.1026 24.7017V19.2124C31.1026 14.6379 29.2728 12.8081 24.6983 12.8081H19.2089C14.6345 12.8081 12.8047 14.6379 12.8047 19.2124V24.7017C12.8047 29.2762 14.6345 31.106 19.2089 31.106Z" stroke="white" stroke-width="1.5" stroke-linecap="round" stroke-linejoin="round"/>
<path d="M19.3047 21.9573V20.6033C19.3047 18.8558 20.5398 18.1514 22.0494 19.0205L23.2204 19.6975L24.3915 20.3746C25.9011 21.2437 25.9011 22.6709 24.3915 23.5401L23.2204 24.2171L22.0494 24.8941C20.5398 25.7633 19.3047 25.0524 19.3047 23.3141V21.9573Z" stroke="white" stroke-width="1.5" stroke-linecap="round" stroke-linejoin="round"/>
</svg>
