<svg width="43" height="43" viewBox="0 0 43 43" fill="none" xmlns="http://www.w3.org/2000/svg">
<path d="M21.5 43C33.3741 43 43 33.3741 43 21.5C43 9.62588 33.3741 0 21.5 0C9.62588 0 0 9.62588 0 21.5C0 33.3741 9.62588 43 21.5 43Z" fill="#A3C485"/>
<path d="M20.5781 15.167H30.328" stroke="white" stroke-width="1.5" stroke-linecap="round" stroke-linejoin="round"/>
<path d="M20.5781 21.667H30.328" stroke="white" stroke-width="1.5" stroke-linecap="round" stroke-linejoin="round"/>
<path d="M20.5781 28H30.328" stroke="white" stroke-width="1.5" stroke-linecap="round" stroke-linejoin="round"/>
<path d="M13 26.0001C13 25.4255 13.2283 24.8744 13.6346 24.4681C14.0409 24.0618 14.592 23.8335 15.1666 23.8335C15.7413 23.8335 16.2924 24.0618 16.6987 24.4681C17.105 24.8744 17.3333 25.4255 17.3333 26.0001C17.3333 26.6404 16.7916 27.0835 16.25 27.6251L13 30.3334H17.3333" stroke="white" stroke-width="1.5" stroke-linecap="round" stroke-linejoin="round"/>
<path d="M15.1666 19.4999V13L13 15.1666" stroke="white" stroke-width="1.5" stroke-linecap="round" stroke-linejoin="round"/>
</svg>
