<svg width="43" height="43" viewBox="0 0 43 43" fill="none" xmlns="http://www.w3.org/2000/svg">
<path d="M21.5 43C33.3741 43 43 33.3741 43 21.5C43 9.62588 33.3741 0 21.5 0C9.62588 0 0 9.62588 0 21.5C0 33.3741 9.62588 43 21.5 43Z" fill="#A3C485"/>
<path d="M26.5359 31.1067H17.387C13.7274 31.1067 12.8125 30.1918 12.8125 26.5322V24.7024C12.8125 21.0428 13.7274 20.1279 17.387 20.1279H26.5359C30.1955 20.1279 31.1104 21.0428 31.1104 24.7024V26.5322C31.1104 30.1918 30.1955 31.1067 26.5359 31.1067Z" stroke="white" stroke-width="1.5" stroke-linecap="round" stroke-linejoin="round"/>
<path d="M16.4688 20.1277V18.298C16.4688 15.2697 17.3836 12.8086 21.9581 12.8086C26.0751 12.8086 27.4475 14.6384 27.4475 17.3831" stroke="white" stroke-width="1.5" stroke-linecap="round" stroke-linejoin="round"/>
<path d="M24.2463 25.6173C24.2463 26.0697 24.1122 26.5119 23.8609 26.888C23.6096 27.2642 23.2523 27.5573 22.8344 27.7304C22.4165 27.9036 21.9566 27.9489 21.5129 27.8606C21.0692 27.7723 20.6617 27.5545 20.3418 27.2346C20.0219 26.9148 19.8041 26.5072 19.7158 26.0635C19.6276 25.6198 19.6729 25.16 19.846 24.742C20.0191 24.3241 20.3123 23.9669 20.6884 23.7155C21.0645 23.4642 21.5067 23.3301 21.9591 23.3301C22.5657 23.3301 23.1475 23.5711 23.5764 24C24.0054 24.4289 24.2463 25.0107 24.2463 25.6173Z" stroke="white" stroke-width="1.5" stroke-linecap="round" stroke-linejoin="round"/>
</svg>
