<svg width="49" height="49" viewBox="0 0 49 49" fill="none" xmlns="http://www.w3.org/2000/svg">
<rect x="24.0391" width="34" height="34" rx="6" transform="rotate(45 24.0391 0)" fill="#28C76F"/>
<g clip-path="url(#clip0_6927_253281)">
<path d="M16.6719 24V21.25C16.6719 20.5207 16.9616 19.8212 17.4773 19.3055C17.9931 18.7897 18.6925 18.5 19.4219 18.5H31.3385M31.3385 18.5L28.5885 15.75M31.3385 18.5L28.5885 21.25" stroke="white" stroke-width="1.5" stroke-linecap="round" stroke-linejoin="round"/>
<path d="M31.3385 24V26.75C31.3385 27.4793 31.0488 28.1788 30.5331 28.6945C30.0174 29.2103 29.3179 29.5 28.5885 29.5H16.6719M16.6719 29.5L19.4219 32.25M16.6719 29.5L19.4219 26.75" stroke="white" stroke-width="1.5" stroke-linecap="round" stroke-linejoin="round"/>
</g>
<defs>
<clipPath id="clip0_6927_253281">
<rect width="22" height="22" fill="white" transform="translate(13 13)"/>
</clipPath>
</defs>
</svg>
