<svg width="43" height="43" viewBox="0 0 43 43" fill="none" xmlns="http://www.w3.org/2000/svg">
<path d="M21.5 43C33.3741 43 43 33.3741 43 21.5C43 9.62588 33.3741 0 21.5 0C9.62588 0 0 9.62588 0 21.5C0 33.3741 9.62588 43 21.5 43Z" fill="#A3A9C3"/>
<path d="M30.5514 13.3679C30.3563 13.1725 30.1211 13.0217 29.8621 12.926C29.603 12.8303 29.3263 12.7919 29.051 12.8135C27.4969 12.9357 25.9715 13.3009 24.5305 13.8958C22.224 14.8486 20.1833 16.3471 18.5837 18.2626C16.6789 18.4009 14.8898 19.2291 13.5518 20.5919C12.8955 21.2484 12.3567 22.0128 11.959 22.8517C11.9035 22.9688 11.8855 23.1003 11.9077 23.228C11.9298 23.3558 11.9909 23.4736 12.0825 23.5652C12.1742 23.6569 12.292 23.718 12.4197 23.7401C12.5475 23.7622 12.6789 23.7443 12.7961 23.6888C13.7583 23.2267 14.8217 23.0149 15.8875 23.0731C15.8137 23.292 15.7445 23.5131 15.6798 23.7364L13.6726 24.9404C13.5907 24.9895 13.521 25.0567 13.469 25.1368C13.417 25.2169 13.3839 25.3079 13.3722 25.4027C13.3606 25.4975 13.3707 25.5937 13.4018 25.684C13.4329 25.7743 13.4842 25.8564 13.5518 25.9239L14.4786 26.8507C14.1337 27.3057 13.8166 27.7811 13.5289 28.2742C13.299 28.6547 13.1075 29.0571 12.9571 29.4755C12.8509 29.6889 12.8086 29.9284 12.8354 30.1652C12.8622 30.402 12.9569 30.6261 13.1081 30.8103C13.2937 30.9588 13.5175 31.0517 13.7537 31.0784C13.9899 31.1051 14.2288 31.0645 14.4429 30.9613C14.8613 30.8109 15.2637 30.6194 15.6442 30.3895C16.1373 30.1018 16.6127 29.7847 17.0677 29.4398L17.9945 30.3666C18.062 30.4342 18.1441 30.4855 18.2344 30.5166C18.3247 30.5477 18.4209 30.5578 18.5157 30.5462C18.6106 30.5346 18.7015 30.5015 18.7816 30.4494C18.8617 30.3974 18.9289 30.3277 18.978 30.2458L20.182 28.2386C20.4053 28.1745 20.6264 28.1053 20.8453 28.0309C20.9035 29.0968 20.6917 30.1601 20.2296 31.1223C20.1741 31.2395 20.1562 31.3709 20.1783 31.4987C20.2004 31.6264 20.2615 31.7442 20.3532 31.8359C20.4448 31.9276 20.5626 31.9886 20.6904 32.0108C20.8181 32.0329 20.9496 32.015 21.0667 31.9594C21.9053 31.5616 22.6693 31.0229 23.3256 30.3666C24.6884 29.0286 25.5166 27.2395 25.6549 25.3347C26.3829 24.7267 27.0533 24.0529 27.6576 23.3219C28.6389 22.1368 29.4359 20.8106 30.0217 19.3879C30.6166 17.9469 30.9818 16.4215 31.104 14.8674C31.1258 14.5924 31.0876 14.3159 30.9922 14.057C30.8969 13.7981 30.7465 13.563 30.5514 13.3679ZM14.0028 21.9651C14.1419 21.7968 14.2889 21.6352 14.4438 21.4802C15.2929 20.6201 16.3579 20.0045 17.527 19.698C17.0795 20.3837 16.689 21.1049 16.3596 21.8544C15.5732 21.7641 14.7773 21.8015 14.0028 21.9651ZM15.2562 29.1599C14.9239 29.3712 14.5748 29.5548 14.2124 29.7088C14.3664 29.3464 14.55 28.9972 14.7613 28.6649C14.9726 28.3209 15.1922 27.9998 15.3788 27.75L16.173 28.5441C15.9186 28.7271 15.5975 28.9494 15.2535 29.1599H15.2562ZM18.3147 28.9101L15.0092 25.6046L16.1199 24.9385L18.9808 27.7994L18.3147 28.9101ZM21.9533 29.9165C22.1176 29.1412 22.1553 28.3443 22.0649 27.557C22.814 27.2287 23.5349 26.8394 24.2204 26.3932C23.8543 27.777 23.0609 29.0099 21.9533 29.9165ZM19.9561 26.9961L16.9232 23.9633C17.9348 20.5723 20.1994 17.6936 23.257 15.9122L28.008 20.6632C26.226 23.7205 23.3471 25.9848 19.9561 26.9961ZM29.8525 14.7695C29.7249 16.4052 29.3066 18.0051 28.6174 19.494L24.4253 15.302C25.9142 14.6127 27.5141 14.1944 29.1498 14.0669C29.244 14.0596 29.3385 14.0728 29.4271 14.1055C29.5156 14.1382 29.5961 14.1898 29.6628 14.2565C29.7296 14.3233 29.7811 14.4037 29.8138 14.4922C29.8466 14.5808 29.8597 14.6754 29.8525 14.7695Z" fill="white"/>
<path d="M29.2019 12.7168C29.4779 12.7168 29.751 12.774 30.004 12.8846C30.2569 12.9952 30.4843 13.1569 30.6717 13.3596C30.8592 13.5623 31.0027 13.8015 31.0933 14.0623C31.1839 14.3231 31.2196 14.5998 31.1982 14.875C31.0743 16.4387 30.706 17.9734 30.1067 19.423C29.5171 20.8537 28.7152 22.1873 27.728 23.379C27.128 24.1042 26.4635 24.7736 25.7427 25.3789C25.5922 27.2916 24.7566 29.0858 23.3896 30.4319C22.725 31.096 21.9514 31.6409 21.1023 32.043C20.9681 32.1065 20.8176 32.127 20.6713 32.1016C20.525 32.0762 20.3902 32.0063 20.2852 31.9013C20.1802 31.7963 20.1103 31.6615 20.0849 31.5152C20.0595 31.3689 20.08 31.2184 20.1435 31.0842C20.5816 30.1723 20.792 29.1676 20.7565 28.1565C20.5827 28.2133 20.4097 28.2672 20.2387 28.3176L19.0493 30.2937C18.993 30.3875 18.9161 30.4673 18.8244 30.5269C18.7327 30.5866 18.6287 30.6245 18.5201 30.6379C18.4115 30.6513 18.3013 30.6398 18.1979 30.6043C18.0945 30.5687 18.0005 30.5101 17.9231 30.4328L17.0521 29.5618C16.6124 29.8904 16.1542 30.1935 15.6797 30.4694C15.2938 30.7027 14.8855 30.897 14.4611 31.0494C14.2316 31.1615 13.9746 31.2049 13.721 31.1742C13.4675 31.1435 13.2282 31.0401 13.032 30.8765C12.8678 30.6807 12.764 30.4414 12.7333 30.1877C12.7026 29.934 12.7463 29.6768 12.8591 29.4475C13.0168 29.0224 13.2167 28.6141 13.4556 28.2288C13.7316 27.7543 14.0346 27.2961 14.3632 26.8565L13.4922 25.9855C13.4149 25.9081 13.3563 25.8141 13.3208 25.7107C13.2852 25.6072 13.2737 25.497 13.2871 25.3885C13.3005 25.2799 13.3385 25.1758 13.3981 25.0841C13.4578 24.9924 13.5375 24.9155 13.6313 24.8593L15.6075 23.6699C15.6569 23.4979 15.7109 23.325 15.7685 23.1521C15.6907 23.1521 15.612 23.1475 15.5334 23.1475C14.6013 23.152 13.6817 23.3629 12.8408 23.7651C12.7066 23.8288 12.556 23.8495 12.4095 23.8243C12.2631 23.7991 12.128 23.7292 12.0229 23.6242C11.918 23.519 11.8482 23.3839 11.823 23.2375C11.7977 23.0911 11.8184 22.9405 11.882 22.8062C12.2841 21.9572 12.8291 21.1835 13.4931 20.519C14.8394 19.1559 16.6316 18.3235 18.5415 18.1741C19.1471 17.4549 19.8164 16.792 20.5415 16.1934C21.7331 15.2062 23.0668 14.4042 24.4975 13.8147C25.9472 13.2163 27.4819 12.8489 29.0454 12.7259C29.1003 12.7168 29.1497 12.7168 29.2019 12.7168ZM20.7995 31.9296C20.8793 31.9297 20.9581 31.9119 21.03 31.8774C21.8594 31.4843 22.6151 30.9517 23.2642 30.3029C24.6097 28.9789 25.4281 27.2111 25.567 25.3286V25.2893L25.5972 25.2646C26.3207 24.6597 26.9871 23.9896 27.588 23.2628C28.5631 22.0854 29.3551 20.7678 29.9374 19.3544C30.5284 17.9221 30.8912 16.406 31.0124 14.8613C31.032 14.6115 30.9997 14.3603 30.9176 14.1235C30.8355 13.8867 30.7054 13.6694 30.5354 13.4852C30.3654 13.3011 30.1592 13.154 29.9298 13.0533C29.7003 12.9525 29.4525 12.9003 29.2019 12.8998C29.1552 12.8998 29.1104 12.8998 29.0601 12.9053C27.5154 13.0265 25.9993 13.3893 24.567 13.9803C23.1535 14.5629 21.8359 15.3552 20.6586 16.3306C19.9318 16.9315 19.2617 17.5979 18.6568 18.3214L18.6321 18.3516H18.5928C16.7099 18.4913 14.942 19.3107 13.6185 20.6572C12.9694 21.3062 12.4365 22.0619 12.043 22.8913C12.0041 22.9732 11.9866 23.0635 11.992 23.154C11.9974 23.2445 12.0256 23.3321 12.074 23.4087C12.1224 23.4853 12.1894 23.5484 12.2688 23.5922C12.3482 23.6359 12.4373 23.6589 12.5279 23.6589C12.6079 23.6582 12.6867 23.6394 12.7585 23.604C13.6237 23.1905 14.5698 22.9737 15.5288 22.9691C15.6505 22.9691 15.774 22.9691 15.8947 22.9801L16.0146 22.9874L15.9762 23.1008C15.9021 23.3204 15.8325 23.5418 15.7694 23.7605L15.7593 23.7952L13.7219 25.0194C13.652 25.0614 13.5925 25.1188 13.5481 25.1871C13.5037 25.2555 13.4754 25.3332 13.4654 25.4141C13.4555 25.4951 13.4641 25.5772 13.4906 25.6543C13.5171 25.7315 13.5609 25.8015 13.6185 25.8592L14.602 26.8428L14.5535 26.9068C14.2108 27.3585 13.8958 27.8305 13.6103 28.3203C13.3833 28.6956 13.1942 29.0924 13.0458 29.5051C12.9458 29.7025 12.9047 29.9245 12.9274 30.1447C12.9501 30.3648 13.0357 30.5737 13.1739 30.7466C13.347 30.8843 13.5559 30.9695 13.7759 30.9922C13.9959 31.0149 14.2178 30.9741 14.4154 30.8747C14.828 30.7262 15.2249 30.5371 15.6001 30.3102C16.0899 30.0249 16.5619 29.7102 17.0137 29.3679L17.0777 29.3194L18.0612 30.3029C18.1189 30.3605 18.189 30.4043 18.2661 30.4308C18.3432 30.4573 18.4254 30.4659 18.5064 30.4559C18.5873 30.446 18.6649 30.4177 18.7333 30.3733C18.8017 30.3288 18.8591 30.2694 18.9011 30.1995L20.1243 28.1611L20.1591 28.1511C20.3759 28.0888 20.5982 28.0193 20.8187 27.9443L20.9321 27.9059L20.9395 28.0257C20.9998 29.1069 20.7858 30.1857 20.3173 31.162C20.2784 31.2438 20.2609 31.3342 20.2663 31.4246C20.2717 31.5151 20.2999 31.6027 20.3483 31.6793C20.3967 31.756 20.4637 31.8191 20.5431 31.8628C20.6225 31.9066 20.7116 31.9295 20.8022 31.9296H20.7995ZM29.2046 13.9739C29.3072 13.9743 29.4085 13.9959 29.5023 14.0372C29.5962 14.0786 29.6805 14.1388 29.75 14.2142C29.8195 14.2896 29.8728 14.3784 29.9065 14.4753C29.9401 14.5721 29.9535 14.6749 29.9457 14.7771C29.8181 16.4244 29.3971 18.0356 28.7023 19.5346L28.6474 19.6535L24.2688 15.2785L24.3877 15.2236C25.8867 14.5289 27.4979 14.1078 29.1452 13.9803L29.2046 13.9739ZM28.5898 19.337C29.2431 17.8917 29.64 16.3438 29.7627 14.7625C29.769 14.6815 29.7577 14.6 29.7296 14.5238C29.7014 14.4476 29.6571 14.3783 29.5996 14.3208C29.5421 14.2634 29.4729 14.219 29.3967 14.1909C29.3204 14.1627 29.239 14.1514 29.158 14.1578C27.5767 14.2804 26.0287 14.6773 24.5835 15.3306L28.5898 19.337ZM23.2734 15.7972L28.1223 20.6462L28.0866 20.7075C26.2973 23.7877 23.3985 26.0676 19.9834 27.0806L19.9313 27.0962L16.8206 23.9855L16.8362 23.9334C17.8495 20.5172 20.1305 17.6176 23.2121 15.8284L23.2734 15.7972ZM27.8945 20.6764L23.245 16.026C20.248 17.7843 18.0259 20.61 17.0237 23.9371L19.9797 26.8931C23.3075 25.8929 26.1345 23.6724 27.8945 20.6764ZM17.73 19.5529L17.6019 19.7496C17.1587 20.4308 16.772 21.1471 16.4455 21.8914L16.4181 21.9572L16.3504 21.949C16.0771 21.917 15.8021 21.9011 15.527 21.9014C15.0194 21.9019 14.5132 21.9546 14.0165 22.0588L13.7612 22.1118L13.9268 21.9106C14.0668 21.7404 14.2168 21.5757 14.3733 21.4193C15.2351 20.5466 16.3159 19.9219 17.5022 19.6105L17.73 19.5529ZM16.3046 21.7559C16.597 21.0983 16.9361 20.4623 17.3192 19.853C16.2557 20.1747 15.2891 20.7564 14.5069 21.5455C14.4154 21.637 14.3239 21.7285 14.2415 21.8264C14.6672 21.752 15.0985 21.7144 15.5306 21.7139C15.7892 21.714 16.0476 21.7281 16.3046 21.7559ZM16.1363 24.8227L19.0978 27.7851L18.3348 29.0568L14.8637 25.5866L16.1363 24.8227ZM18.8672 27.8125L16.1088 25.0532L15.1601 25.6223L18.2991 28.7613L18.8672 27.8125ZM24.3685 26.1904L24.3099 26.4182C23.9381 27.8194 23.1343 29.0679 22.0126 29.9863L21.8114 30.1519L21.8644 29.8967C22.027 29.131 22.064 28.344 21.9742 27.5664L21.9641 27.5033L22.0264 27.4759C22.7706 27.1494 23.4869 26.7626 24.1681 26.3194L24.3685 26.1904ZM22.0941 29.6789C23.0238 28.8551 23.7072 27.7898 24.0684 26.6012C23.4585 26.9844 22.8219 27.3235 22.1636 27.6158C22.2373 28.3037 22.2139 28.9976 22.0941 29.6789ZM15.3678 27.6085L16.3119 28.5536L16.2259 28.6167C15.9396 28.8281 15.6111 29.0486 15.3019 29.2379C14.965 29.4516 14.6113 29.6377 14.2443 29.7942L14.0457 29.8738L14.1253 29.6753C14.2819 29.3083 14.4679 28.9546 14.6816 28.6176C14.925 28.2215 15.1537 27.8967 15.3028 27.6936L15.3678 27.6085ZM16.0329 28.5316L15.3925 27.8912C15.204 28.152 15.011 28.4402 14.8435 28.7146C14.6784 28.9806 14.5281 29.2555 14.3934 29.538C14.676 29.4033 14.9509 29.2531 15.2168 29.0879C15.4812 28.9104 15.7712 28.721 16.032 28.5326L16.0329 28.5316Z" fill="white"/>
</svg>
