<svg width="99" height="113" viewBox="0 0 99 113" fill="none" xmlns="http://www.w3.org/2000/svg">
<path id="Shape" d="M1 1C1 0.723858 0.776142 0.5 0.5 0.5C0.223858 0.5 0 0.723858 0 1H1ZM98.3536 108.854C98.5488 108.658 98.5488 108.342 98.3536 108.146L95.1716 104.964C94.9763 104.769 94.6597 104.769 94.4645 104.964C94.2692 105.16 94.2692 105.476 94.4645 105.672L97.2929 108.5L94.4645 111.328C94.2692 111.524 94.2692 111.84 94.4645 112.036C94.6597 112.231 94.9763 112.231 95.1716 112.036L98.3536 108.854ZM0 1V39.75H1V1H0ZM0 69.75V84.5H1V69.75H0ZM24.5 109H98V108H24.5V109ZM0 84.5C0 98.031 10.969 109 24.5 109V108C11.5213 108 1 97.4787 1 84.5H0Z" fill="#CECCCC"/>
</svg>
