<svg width="42" height="43" viewBox="0 0 42 43" fill="none" xmlns="http://www.w3.org/2000/svg">
<path d="M21 43C32.598 43 42 33.3741 42 21.5C42 9.62588 32.598 0 21 0C9.40202 0 0 9.62588 0 21.5C0 33.3741 9.40202 43 21 43Z" fill="#A3A9C3"/>
<path d="M21.5781 26.0747V27.996" stroke="white" stroke-width="1.5" stroke-linecap="round" stroke-linejoin="round"/>
<path d="M17.1094 31.1065H26.0455V30.1916C26.0441 29.7068 25.8554 29.2422 25.5205 28.8993C25.1856 28.5565 24.7319 28.3633 24.2583 28.3618H18.8966C18.423 28.3633 17.9693 28.5565 17.6344 28.8993C17.2995 29.2422 17.1108 29.7068 17.1094 30.1916V31.1065Z" stroke="white" stroke-width="1.5"/>
<path d="M16.2188 31.1069H26.9422" stroke="white" stroke-width="1.5" stroke-linecap="round" stroke-linejoin="round"/>
<path d="M21.4428 25.6171C19.7838 25.6171 18.1927 24.9424 17.0196 23.7413C15.8465 22.5403 15.1875 20.9114 15.1875 19.2128V16.4682C15.1875 15.4976 15.5641 14.5668 16.2344 13.8805C16.9048 13.1942 17.814 12.8086 18.762 12.8086H24.1237C25.0717 12.8086 25.9809 13.1942 26.6512 13.8805C27.3215 14.5668 27.6981 15.4976 27.6981 16.4682V19.2128C27.6981 20.9114 27.0391 22.5403 25.866 23.7413C24.6929 24.9424 23.1018 25.6171 21.4428 25.6171Z" stroke="white" stroke-width="1.5" stroke-linecap="round" stroke-linejoin="round"/>
<path d="M15.6121 21.6378C14.9605 21.4166 14.3694 21.0403 13.8874 20.5399C13.0505 19.6547 12.5717 18.4781 12.547 17.2463C12.5441 16.9451 12.5999 16.6464 12.7112 16.3676C12.8225 16.0888 12.9869 15.8354 13.1949 15.6225C13.403 15.4095 13.6504 15.2411 13.9227 15.1272C14.1951 15.0133 14.4868 14.9562 14.781 14.9591H15.3619C15.1815 15.3929 15.0903 15.86 15.0938 16.3314V19.0761C15.0937 19.9573 15.2701 20.8291 15.6121 21.6378Z" stroke="white" stroke-width="1.5" stroke-linecap="round" stroke-linejoin="round"/>
<path d="M27.2812 21.6373C27.9328 21.4161 28.5239 21.0398 29.0059 20.5395C29.8428 19.6542 30.3216 18.4776 30.3464 17.2458C30.3492 16.9447 30.2934 16.6459 30.1821 16.3671C30.0709 16.0883 29.9064 15.835 29.6984 15.622C29.4904 15.409 29.243 15.2406 28.9706 15.1267C28.6983 15.0128 28.4065 14.9557 28.1123 14.9586H27.5315C27.7118 15.3924 27.8031 15.8595 27.7995 16.3309V19.0756C27.7996 19.9568 27.6232 20.8287 27.2812 21.6373Z" stroke="white" stroke-width="1.5" stroke-linecap="round" stroke-linejoin="round"/>
</svg>
