<svg width="39" height="39" viewBox="0 0 39 39" fill="none" xmlns="http://www.w3.org/2000/svg">
<rect x="39" width="39" height="39" rx="6" transform="rotate(90 39 0)" fill="#F29A68"/>
<path d="M29.1144 13.5533C29.1144 14.0961 28.9534 14.6268 28.6518 15.0781C28.3502 15.5295 27.9216 15.8813 27.42 16.089C26.9185 16.2968 26.3666 16.3511 25.8342 16.2452C25.3018 16.1393 24.8128 15.8779 24.4289 15.4941C24.045 15.1102 23.7836 14.6212 23.6777 14.0887C23.5718 13.5563 23.6262 13.0045 23.8339 12.5029C24.0417 12.0014 24.3935 11.5727 24.8448 11.2712C25.2962 10.9696 25.8268 10.8086 26.3697 10.8086C27.0976 10.8086 27.7957 11.0978 28.3105 11.6125C28.8252 12.1272 29.1144 12.8253 29.1144 13.5533Z" stroke="white" stroke-width="1.5" stroke-linecap="round" stroke-linejoin="round"/>
<path d="M15.3906 20.8721H19.9651" stroke="white" stroke-width="1.5" stroke-linecap="round" stroke-linejoin="round"/>
<path d="M15.3906 24.5317H23.6247" stroke="white" stroke-width="1.5" stroke-linecap="round" stroke-linejoin="round"/>
<path d="M21.7912 10.8086H17.2168C12.6423 10.8086 10.8125 12.6384 10.8125 17.2128V22.7022C10.8125 27.2767 12.6423 29.1065 17.2168 29.1065H22.7061C27.2806 29.1065 29.1104 27.2767 29.1104 22.7022V18.1277" stroke="white" stroke-width="1.5" stroke-linecap="round" stroke-linejoin="round"/>
</svg>
