<svg width="43" height="43" viewBox="0 0 43 43" fill="none" xmlns="http://www.w3.org/2000/svg">
<path d="M21.5 43C33.3741 43 43 33.3741 43 21.5C43 9.62588 33.3741 0 21.5 0C9.62588 0 0 9.62588 0 21.5C0 33.3741 9.62588 43 21.5 43Z" fill="#A3A9C3"/>
<path d="M19.2089 12.8086H24.6983C29.2728 12.8086 31.1026 14.6384 31.1026 19.2128V24.7022C31.1026 29.2767 29.2728 31.1065 24.6983 31.1065H19.2089C14.6345 31.1065 12.8047 29.2767 12.8047 24.7022V19.2128C12.8047 14.6384 14.6345 12.8086 19.2089 12.8086Z" stroke="white" stroke-width="1.5" stroke-linecap="round" stroke-linejoin="round"/>
<path d="M18.8125 24.9492L24.7959 18.9658" stroke="white" stroke-width="1.5" stroke-linecap="round" stroke-linejoin="round"/>
<path d="M20.3131 19.3411C20.3131 19.5637 20.2471 19.7813 20.1235 19.9663C19.9998 20.1514 19.8241 20.2956 19.6185 20.3808C19.4128 20.466 19.1866 20.4883 18.9683 20.4448C18.75 20.4014 18.5495 20.2942 18.3921 20.1369C18.2347 19.9795 18.1275 19.779 18.0841 19.5607C18.0407 19.3424 18.063 19.1161 18.1482 18.9105C18.2333 18.7049 18.3776 18.5291 18.5626 18.4055C18.7477 18.2818 18.9653 18.2158 19.1878 18.2158C19.4863 18.2158 19.7725 18.3344 19.9835 18.5454C20.1946 18.7565 20.3131 19.0427 20.3131 19.3411Z" stroke="white" stroke-width="1.5" stroke-linecap="round" stroke-linejoin="round"/>
<path d="M26.2975 24.5745C26.2975 24.7971 26.2315 25.0147 26.1079 25.1997C25.9842 25.3848 25.8085 25.529 25.6028 25.6142C25.3972 25.6994 25.1709 25.7217 24.9527 25.6782C24.7344 25.6348 24.5339 25.5276 24.3765 25.3703C24.2191 25.2129 24.1119 25.0124 24.0685 24.7941C24.0251 24.5758 24.0474 24.3495 24.1325 24.1439C24.2177 23.9383 24.3619 23.7625 24.547 23.6389C24.7321 23.5152 24.9496 23.4492 25.1722 23.4492C25.4706 23.4492 25.7569 23.5678 25.9679 23.7788C26.179 23.9899 26.2975 24.2761 26.2975 24.5745Z" stroke="white" stroke-width="1.5" stroke-linecap="round" stroke-linejoin="round"/>
</svg>
