<svg width="43" height="43" viewBox="0 0 43 43" fill="none" xmlns="http://www.w3.org/2000/svg">
<path d="M21.5 43C33.3741 43 43 33.3741 43 21.5C43 9.62588 33.3741 0 21.5 0C9.62588 0 0 9.62588 0 21.5C0 33.3741 9.62588 43 21.5 43Z" fill="#A3A9C3"/>
<path d="M17.2018 23.6669C16.7779 23.2675 16.5121 22.7288 16.4531 22.1495C16.4653 21.5446 16.7165 20.9692 17.152 20.5492C17.5874 20.1292 18.1715 19.8989 18.7764 19.9085C19.409 19.933 20.0175 20.1583 20.5135 20.5518C21.0122 20.159 21.6223 19.9338 22.2567 19.9085C22.8619 19.8983 23.4465 20.1285 23.8824 20.5485C24.3183 20.9686 24.5698 21.5443 24.5819 22.1495C24.5239 22.7302 24.2559 23.2698 23.8283 23.6669L20.5165 26.8592L17.2018 23.6669ZM18.0277 22.3251C18.0751 22.5628 18.1979 22.7789 18.3779 22.9413L20.5135 25.0056L22.6501 22.9473C22.8307 22.7821 22.9549 22.5645 23.0054 22.3251C23.0001 22.0654 22.892 21.8184 22.7048 21.6383C22.5175 21.4583 22.2665 21.3599 22.0068 21.3647C21.5791 21.4144 21.183 21.6143 20.8888 21.9287L20.5145 22.3301L20.1452 21.9287C19.8504 21.6118 19.4515 21.4113 19.0212 21.3637C18.7621 21.3599 18.5121 21.459 18.3259 21.6392C18.1397 21.8194 18.0325 22.066 18.0277 22.3251Z" fill="white"/>
<path d="M24.079 32.3752H16.9587C16.1858 32.3878 15.4394 32.0934 14.8833 31.5564C14.3272 31.0195 14.0067 30.2839 13.9922 29.511V18.0564C14.0067 17.2835 14.3272 16.548 14.8833 16.011C15.4394 15.4741 16.1858 15.1797 16.9587 15.1923H24.079C24.8519 15.1797 25.5982 15.4741 26.1544 16.011C26.7105 16.548 27.0309 17.2835 27.0455 18.0564V29.511C27.0307 30.2838 26.7102 31.0193 26.1541 31.5561C25.598 32.093 24.8518 32.3875 24.079 32.3752ZM16.9587 16.3333C16.4949 16.3255 16.047 16.5021 15.7132 16.8242C15.3795 17.1463 15.1871 17.5877 15.1784 18.0514V29.506C15.1871 29.9698 15.3795 30.4112 15.7132 30.7333C16.047 31.0554 16.4949 31.2319 16.9587 31.2241H24.079C24.5427 31.2316 24.9904 31.055 25.3241 30.733C25.6579 30.4109 25.8503 29.9697 25.8593 29.506V18.0564C25.8516 17.5919 25.6598 17.1494 25.3259 16.8262C24.992 16.5031 24.5435 16.3258 24.079 16.3333H16.9587Z" fill="white"/>
<path d="M24.0765 32.3752C24.8494 32.3875 25.5956 32.093 26.1517 31.5561C26.7077 31.0193 27.0283 30.2838 27.043 29.511V18.0564C27.0285 17.2835 26.7081 16.548 26.1519 16.011C25.5958 15.4741 24.8495 15.1797 24.0765 15.1923H16.9563C16.1834 15.1797 15.437 15.4741 14.8809 16.011C14.3247 16.548 14.0043 17.2835 13.9898 18.0564V29.511C14.0043 30.2839 14.3247 31.0195 14.8809 31.5564C15.437 32.0934 16.1834 32.3878 16.9563 32.3752H24.0765ZM16.9563 16.3333H24.0765C24.5402 16.3258 24.988 16.5024 25.3217 16.8245C25.6554 17.1465 25.8479 17.5877 25.8568 18.0514V29.506C25.8479 29.9697 25.6554 30.4109 25.3217 30.733C24.988 31.055 24.5402 31.2316 24.0765 31.2241H16.9563C16.4925 31.2319 16.0446 31.0554 15.7108 30.7333C15.377 30.4112 15.1847 29.9698 15.176 29.506V18.0564C15.1796 17.8264 15.2286 17.5993 15.3201 17.3881C15.4115 17.177 15.5437 16.986 15.7091 16.8259C15.8744 16.6659 16.0696 16.54 16.2837 16.4555C16.4977 16.371 16.7262 16.3295 16.9563 16.3333ZM24.0765 32.5709H16.9563C16.1302 32.5832 15.333 32.2675 14.7393 31.693C14.1456 31.1185 13.8038 30.3321 13.7891 29.506V18.0564C13.8038 17.2304 14.1456 16.4439 14.7393 15.8694C15.333 15.2949 16.1302 14.9792 16.9563 14.9916H24.0765C24.9026 14.9792 25.6999 15.2949 26.2936 15.8694C26.8873 16.4439 27.229 17.2304 27.2438 18.0564V29.511C27.229 30.3371 26.8873 31.1235 26.2936 31.6981C25.6999 32.2726 24.9026 32.5882 24.0765 32.5759V32.5709ZM16.9563 16.534C16.5458 16.5265 16.1491 16.682 15.853 16.9664C15.5569 17.2508 15.3857 17.641 15.3767 18.0514V29.506C15.3857 29.9165 15.5569 30.3066 15.853 30.591C16.1491 30.8755 16.5458 31.0309 16.9563 31.0234H24.0765C24.487 31.0309 24.8838 30.8755 25.1798 30.591C25.4759 30.3066 25.6472 29.9165 25.6561 29.506V18.0564C25.6472 17.646 25.4759 17.2558 25.1798 16.9714C24.8838 16.687 24.487 16.5315 24.0765 16.5391L16.9563 16.534Z" fill="white"/>
<path d="M27.1694 27.6003V26.5295C27.6027 26.5365 28.021 26.3714 28.3327 26.0704C28.6445 25.7694 28.8241 25.3571 28.8323 24.9238V14.2159C28.8241 13.7826 28.6445 13.3703 28.3327 13.0693C28.021 12.7683 27.6027 12.6032 27.1694 12.6102H20.5168C20.0835 12.6032 19.6652 12.7683 19.3535 13.0693C19.0417 13.3703 18.8621 13.7826 18.8539 14.2159H17.75C17.7637 13.4938 18.0632 12.8067 18.5828 12.3051C19.1024 11.8036 19.7997 11.5286 20.5218 11.5404H27.1744C27.8964 11.5288 28.5936 11.804 29.1131 12.3054C29.6327 12.8069 29.9323 13.4939 29.9462 14.2159V24.9198C29.9323 25.6418 29.6327 26.3288 29.1131 26.8303C28.5936 27.3318 27.8964 27.6069 27.1744 27.5953" fill="white"/>
<path d="M27.1703 27.8466H26.9194V26.274H27.1703C27.537 26.281 27.8916 26.1423 28.1562 25.8884C28.4209 25.6344 28.5741 25.2859 28.5823 24.9192V14.2162C28.5741 13.8495 28.4209 13.501 28.1562 13.2471C27.8916 12.9931 27.537 12.8544 27.1703 12.8614H20.5177C20.151 12.8544 19.7964 12.9931 19.5317 13.2471C19.2671 13.501 19.1138 13.8495 19.1057 14.2162V14.4671H17.5V14.2162C17.514 13.4277 17.84 12.6769 18.4066 12.1284C18.9732 11.5799 19.7342 11.2783 20.5227 11.2899H27.1753C27.9626 11.2802 28.7218 11.5826 29.2869 12.1309C29.8519 12.6793 30.177 13.429 30.191 14.2162V24.9202C30.177 25.7083 29.8512 26.4588 29.2851 27.0073C28.7189 27.5558 27.9585 27.8576 27.1703 27.8466ZM27.4212 26.7607V27.3337C28.0308 27.2851 28.6006 27.0117 29.0201 26.5667C29.4395 26.1216 29.6787 25.5366 29.6912 24.9252V14.2162C29.6772 13.5608 29.4041 12.9376 28.9316 12.4832C28.4591 12.0287 27.8258 11.7801 27.1703 11.7916H20.5177C19.9054 11.7822 19.3112 11.9987 18.8484 12.3996C18.3856 12.8006 18.0867 13.358 18.0088 13.9654H18.62C18.6904 13.5144 18.9208 13.104 19.2691 12.8091C19.6175 12.5142 20.0603 12.3547 20.5167 12.3597H27.1693C27.6691 12.3527 28.1513 12.5442 28.51 12.8923C28.8688 13.2403 29.0749 13.7165 29.0831 14.2162V24.9202C29.0766 25.3764 28.9045 25.8147 28.5987 26.1534C28.2929 26.492 27.8744 26.7079 27.4212 26.7607Z" fill="white"/>
</svg>
