<svg width="43" height="43" viewBox="0 0 43 43" fill="none" xmlns="http://www.w3.org/2000/svg">
<path d="M21.5 43C33.3741 43 43 33.3741 43 21.5C43 9.62588 33.3741 0 21.5 0C9.62588 0 0 9.62588 0 21.5C0 33.3741 9.62588 43 21.5 43Z" fill="#A3C485"/>
<path d="M17.2812 27.5838V25.6899" stroke="white" stroke-width="1.5" stroke-linecap="round"/>
<path d="M21.9688 27.5836V23.7959" stroke="white" stroke-width="1.5" stroke-linecap="round"/>
<path d="M26.6406 27.5842V21.8936" stroke="white" stroke-width="1.5" stroke-linecap="round"/>
<path d="M26.6498 16.3306L26.2289 16.8246C23.8931 19.5517 20.7656 21.4833 17.2812 22.3506" stroke="white" stroke-width="1.5" stroke-linecap="round"/>
<path d="M23.9688 16.3306H26.6494V19.0021" stroke="white" stroke-width="1.5" stroke-linecap="round" stroke-linejoin="round"/>
<path d="M19.2168 31.1065H24.7061C29.2806 31.1065 31.1104 29.2767 31.1104 24.7022V19.2128C31.1104 14.6384 29.2806 12.8086 24.7061 12.8086H19.2168C14.6423 12.8086 12.8125 14.6384 12.8125 19.2128V24.7022C12.8125 29.2767 14.6423 31.1065 19.2168 31.1065Z" stroke="white" stroke-width="1.5" stroke-linecap="round" stroke-linejoin="round"/>
</svg>
