<svg width="39" height="39" viewBox="0 0 39 39" fill="none" xmlns="http://www.w3.org/2000/svg">
<rect x="39" width="39" height="39" rx="6" transform="rotate(90 39 0)" fill="#F29A68"/>
<path d="M28.1026 18.1273V20.8719C28.1026 24.5315 26.2728 26.3613 22.6132 26.3613H22.1558C22.0139 26.3623 21.8741 26.3958 21.7473 26.4592C21.6204 26.5227 21.5097 26.6144 21.4238 26.7273L20.0515 28.557C19.9342 28.742 19.772 28.8944 19.5801 28.9999C19.3882 29.1055 19.1727 29.1608 18.9536 29.1608C18.7346 29.1608 18.5191 29.1055 18.3272 28.9999C18.1352 28.8944 17.9731 28.742 17.8558 28.557L16.4834 26.7273C16.3927 26.6197 16.2811 26.5317 16.1552 26.4688C16.0294 26.4059 15.892 26.3693 15.7515 26.3613H15.294C11.6345 26.3613 9.80469 25.4464 9.80469 20.8719V16.2975C9.80469 12.6379 11.6345 10.8081 15.294 10.8081H20.7834" stroke="white" stroke-width="1.5" stroke-linecap="round" stroke-linejoin="round"/>
<path d="M28.1057 13.0953C28.1057 13.5477 27.9716 13.9899 27.7203 14.3661C27.4689 14.7422 27.1117 15.0354 26.6938 15.2085C26.2758 15.3816 25.8159 15.4269 25.3723 15.3386C24.9286 15.2504 24.521 15.0325 24.2012 14.7127C23.8813 14.3928 23.6635 13.9852 23.5752 13.5416C23.4869 13.0979 23.5322 12.638 23.7054 12.2201C23.8785 11.8021 24.1716 11.4449 24.5478 11.1936C24.9239 10.9422 25.3661 10.8081 25.8185 10.8081C26.4251 10.8081 27.0069 11.0491 27.4358 11.478C27.8647 11.907 28.1057 12.4887 28.1057 13.0953Z" stroke="white" stroke-width="1.5" stroke-linecap="round" stroke-linejoin="round"/>
<path d="M22.6094 19.0425H22.6144" stroke="white" stroke-width="2" stroke-linecap="round" stroke-linejoin="round"/>
<path d="M18.9531 19.0425H18.9581" stroke="white" stroke-width="2" stroke-linecap="round" stroke-linejoin="round"/>
<path d="M15.2969 19.0425H15.3019" stroke="white" stroke-width="2" stroke-linecap="round" stroke-linejoin="round"/>
</svg>
