<svg width="49" height="49" viewBox="0 0 49 49" fill="none" xmlns="http://www.w3.org/2000/svg">
<rect x="24.0391" width="34" height="34" rx="6" transform="rotate(45 24.0391 0)" fill="#9DA8AC"/>
<path d="M22.3653 13.4159L16.9595 15.4385C16.3136 15.7178 15.7591 16.1727 15.3588 16.7514C14.9586 17.3301 14.7287 18.0095 14.6953 18.7123V26.7615C14.7375 27.4776 14.9255 28.1775 15.2478 28.8183C15.57 29.4591 16.0198 30.0274 16.5695 30.4882L21.2278 33.9657C22.0479 34.5267 23.0184 34.8268 24.012 34.8268C25.0056 34.8268 25.976 34.5267 26.7961 33.9657L31.4545 30.4882C32.0042 30.0274 32.4539 29.4591 32.7762 28.8183C33.0985 28.1775 33.2865 27.4776 33.3286 26.7615V18.7123C33.2952 18.0095 33.0654 17.3301 32.6651 16.7514C32.2649 16.1727 31.7103 15.7178 31.0645 15.4385L25.6586 13.4159C24.5866 13.0801 23.4374 13.0801 22.3653 13.4159Z" stroke="white" stroke-width="1.5" stroke-linecap="round" stroke-linejoin="round"/>
<path d="M29.4635 23.4583C29.4635 24.5379 29.1434 25.5932 28.5436 26.4908C27.9439 27.3884 27.0914 28.088 26.094 28.5012C25.0966 28.9143 23.9992 29.0224 22.9403 28.8118C21.8815 28.6012 20.9089 28.0813 20.1456 27.318C19.3822 26.5546 18.8624 25.582 18.6518 24.5232C18.4411 23.4644 18.5492 22.3669 18.9624 21.3695C19.3755 20.3721 20.0751 19.5197 20.9727 18.9199C21.8703 18.3201 22.9257 18 24.0052 18C25.4529 18 26.8412 18.5751 27.8648 19.5987C28.8885 20.6223 29.4635 22.0107 29.4635 23.4583Z" stroke="white" stroke-width="1.5" stroke-linecap="round" stroke-linejoin="round"/>
<path d="M24.3464 21.7529V23.022C24.3477 23.2591 24.2866 23.4923 24.1692 23.6983C24.0518 23.9043 23.8823 24.0758 23.6777 24.1955L22.6406 24.8232" stroke="white" stroke-width="1.5" stroke-linecap="round" stroke-linejoin="round"/>
</svg>
