<svg width="43" height="43" viewBox="0 0 43 43" fill="none" xmlns="http://www.w3.org/2000/svg">
<path d="M21.5 43C33.3741 43 43 33.3741 43 21.5C43 9.62588 33.3741 0 21.5 0C9.62588 0 0 9.62588 0 21.5C0 33.3741 9.62588 43 21.5 43Z" fill="#A3C485"/>
<path d="M26.9807 30.988H16.9467C12.9331 30.988 11.9297 29.9846 11.9297 25.971V17.9438C11.9297 13.9302 12.9331 12.9268 16.9467 12.9268H26.9807C30.9943 12.9268 31.9977 13.9302 31.9977 17.9438V25.971C31.9977 29.9846 30.9943 30.988 26.9807 30.988Z" stroke="white" stroke-width="1.5" stroke-linecap="round" stroke-linejoin="round"/>
<path d="M23.9688 17.9438H28.9858" stroke="white" stroke-width="1.5" stroke-linecap="round" stroke-linejoin="round"/>
<path d="M24.9688 21.957H28.9824" stroke="white" stroke-width="1.5" stroke-linecap="round" stroke-linejoin="round"/>
<path d="M26.9766 25.9707H28.9834" stroke="white" stroke-width="1.5" stroke-linecap="round" stroke-linejoin="round"/>
<path d="M20.2729 19.4289C20.2729 19.7881 20.1664 20.1393 19.9669 20.4379C19.7673 20.7366 19.4837 20.9694 19.1518 21.1069C18.8199 21.2443 18.4548 21.2803 18.1025 21.2102C17.7502 21.1401 17.4266 20.9672 17.1726 20.7132C16.9186 20.4592 16.7456 20.1356 16.6755 19.7833C16.6054 19.431 16.6414 19.0658 16.7789 18.7339C16.9163 18.4021 17.1491 18.1184 17.4478 17.9189C17.7464 17.7193 18.0976 17.6128 18.4568 17.6128C18.9385 17.6128 19.4004 17.8041 19.741 18.1447C20.0816 18.4853 20.2729 18.9473 20.2729 19.4289Z" stroke="white" stroke-width="1.5" stroke-linecap="round" stroke-linejoin="round"/>
<path d="M21.9613 26.3025C21.8938 25.5982 21.5819 24.9397 21.0797 24.4412C20.5776 23.9427 19.9168 23.6356 19.212 23.5733C18.7048 23.5231 18.194 23.5231 17.6868 23.5733C16.9826 23.6373 16.3228 23.9449 15.821 24.4431C15.3192 24.9413 15.0067 25.5988 14.9375 26.3025" stroke="white" stroke-width="1.5" stroke-linecap="round" stroke-linejoin="round"/>
</svg>
