<svg width="39" height="39" viewBox="0 0 39 39" fill="none" xmlns="http://www.w3.org/2000/svg">
<rect x="39" width="39" height="39" rx="6" transform="rotate(90 39 0)" fill="#F29A68"/>
<path d="M19.9763 11.6406C18.5204 11.6406 17.1241 12.219 16.0947 13.2484C15.0652 14.2779 14.4869 15.6741 14.4869 17.13V19.774C14.4576 20.4336 14.2793 21.0779 13.9654 21.6587L12.9133 23.4062C12.7562 23.6372 12.6564 23.9024 12.6224 24.1797C12.5884 24.4571 12.6211 24.7385 12.7177 25.0007C12.8144 25.2628 12.9722 25.4981 13.178 25.687C13.3839 25.876 13.6319 26.013 13.9014 26.0868C17.841 27.4043 22.1023 27.4043 26.042 26.0868C26.3022 26 26.5396 25.8558 26.7366 25.6649C26.9336 25.474 27.0851 25.2412 27.18 24.9838C27.2749 24.7264 27.3106 24.451 27.2847 24.1779C27.2588 23.9048 27.1717 23.6411 27.0301 23.4062L25.978 21.6587C25.671 21.0757 25.4961 20.4322 25.4656 19.774V17.13C25.4613 15.6755 24.8815 14.2817 23.853 13.2532C22.8245 12.2247 21.4308 11.645 19.9763 11.6406Z" stroke="white" stroke-width="1.5" stroke-linecap="round"/>
<path d="M21.6742 11.9064C21.3868 11.8218 21.0931 11.7606 20.7959 11.7234C19.9566 11.612 19.1033 11.6743 18.2891 11.9064C18.4228 11.5665 18.6558 11.2747 18.9576 11.069C19.2595 10.8634 19.6163 10.7534 19.9816 10.7534C20.3469 10.7534 20.7037 10.8634 21.0056 11.069C21.3075 11.2747 21.5404 11.5665 21.6742 11.9064Z" stroke="white" stroke-width="1.5" stroke-linecap="round" stroke-linejoin="round"/>
<path d="M22.7237 26.4165C22.7216 27.1438 22.4317 27.8406 21.9174 28.3549C21.4032 28.8691 20.7063 29.159 19.9791 29.1612C19.2516 29.1594 18.5543 28.87 18.0395 28.3561C17.5255 27.8412 17.2361 27.144 17.2344 26.4165" stroke="white" stroke-width="1.5"/>
</svg>
