<svg width="43" height="43" viewBox="0 0 43 43" fill="none" xmlns="http://www.w3.org/2000/svg">
<path d="M21.5 43C33.3741 43 43 33.3741 43 21.5C43 9.62588 33.3741 0 21.5 0C9.62588 0 0 9.62588 0 21.5C0 33.3741 9.62588 43 21.5 43Z" fill="#A3C485"/>
<path d="M29.5027 12H14.5027C13.6924 11.999 12.9096 12.2937 12.3013 12.8289C11.6929 13.3641 11.3008 14.1029 11.1985 14.9067C11.0962 15.7105 11.2908 16.524 11.7457 17.1945C12.2007 17.865 12.8847 18.3464 13.6694 18.5483V29.5C13.6694 30.163 13.9327 30.7989 14.4016 31.2678C14.8704 31.7366 15.5063 32 16.1694 32H27.836C28.4991 32 29.1349 31.7366 29.6038 31.2678C30.0726 30.7989 30.336 30.163 30.336 29.5V18.5483C31.0519 18.3686 31.687 17.9543 32.1401 17.3717C32.5931 16.789 32.8381 16.0714 32.836 15.3333C32.836 14.4493 32.4848 13.6014 31.8597 12.9763C31.2346 12.3512 30.3867 12 29.5027 12ZM12.836 15.3333C12.8355 15.1144 12.8785 14.8976 12.9625 14.6955C13.0464 14.4934 13.1697 14.3099 13.3252 14.1558C13.4284 14.0556 13.5441 13.9691 13.6694 13.8983V16.7683C13.4168 16.6232 13.2069 16.4142 13.0606 16.1624C12.9144 15.9105 12.8369 15.6246 12.836 15.3333ZM28.6694 29.5C28.6694 29.721 28.5816 29.933 28.4253 30.0893C28.269 30.2455 28.057 30.3333 27.836 30.3333H16.1694C15.9483 30.3333 15.7364 30.2455 15.5801 30.0893C15.4238 29.933 15.336 29.721 15.336 29.5V13.6667H28.6694V29.5ZM30.6802 16.5108C30.577 16.6111 30.4613 16.6976 30.336 16.7683V13.8983C30.5574 14.025 30.7465 14.2011 30.8887 14.4129C31.0308 14.6247 31.1221 14.8664 31.1554 15.1193C31.1887 15.3722 31.1632 15.6293 31.0807 15.8707C30.9983 16.1121 30.8612 16.3312 30.6802 16.5108Z" fill="white"/>
<path d="M23.9136 23.0777L22.8361 24.1552V18.6668C22.8361 18.4458 22.7483 18.2339 22.592 18.0776C22.4358 17.9213 22.2238 17.8335 22.0028 17.8335C21.7818 17.8335 21.5698 17.9213 21.4135 18.0776C21.2572 18.2339 21.1694 18.4458 21.1694 18.6668V24.1552L20.0919 23.0777C19.9348 22.9259 19.7243 22.8419 19.5058 22.8438C19.2873 22.8457 19.0783 22.9333 18.9238 23.0878C18.7693 23.2423 18.6816 23.4513 18.6797 23.6698C18.6778 23.8883 18.7618 24.0988 18.9136 24.256L21.4136 26.756C21.5699 26.9122 21.7818 27 22.0028 27C22.2237 27 22.4357 26.9122 22.5919 26.756L25.0919 24.256C25.2437 24.0988 25.3277 23.8883 25.3258 23.6698C25.3239 23.4513 25.2363 23.2423 25.0818 23.0878C24.9273 22.9333 24.7183 22.8457 24.4998 22.8438C24.2813 22.8419 24.0708 22.9259 23.9136 23.0777Z" fill="white"/>
</svg>
