<svg width="74" height="9" viewBox="0 0 74 9" fill="none" xmlns="http://www.w3.org/2000/svg">
<path id="Shape" d="M1 4C0.723858 4 0.5 4.22386 0.5 4.5C0.5 4.77614 0.723858 5 1 5V4ZM73.3536 4.85355C73.5488 4.65829 73.5488 4.34171 73.3536 4.14645L70.1716 0.964466C69.9763 0.769204 69.6597 0.769204 69.4645 0.964466C69.2692 1.15973 69.2692 1.47631 69.4645 1.67157L72.2929 4.5L69.4645 7.32843C69.2692 7.52369 69.2692 7.84027 69.4645 8.03553C69.6597 8.2308 69.9763 8.2308 70.1716 8.03553L73.3536 4.85355ZM1 5H20.5V4H1V5ZM53.5 5H73V4H53.5V5Z" fill="#CECCCC"/>
</svg>

